<?xml version="1.0" encoding="UTF-8"?>
<!DOCTYPE svg PUBLIC "-//W3C//DTD SVG 1.1//EN" "http://www.w3.org/Graphics/SVG/1.1/DTD/svg11.dtd">
<!-- Creator: CorelDRAW -->
<svg xmlns="http://www.w3.org/2000/svg" xml:space="preserve" width="2048px" height="2048px" style="shape-rendering:geometricPrecision; text-rendering:geometricPrecision; image-rendering:optimizeQuality; fill-rule:evenodd; clip-rule:evenodd"
viewBox="0 0 2048 2048"
 xmlns:xlink="http://www.w3.org/1999/xlink">
 <defs>
  <style type="text/css">
   <![CDATA[
    .fil2 {fill:none}
    .fil12 {fill:#455A64}
    .fil7 {fill:#6D8591}
    .fil8 {fill:#78909C}
    .fil11 {fill:#8BC34A}
    .fil3 {fill:#BBDEFB}
    .fil9 {fill:#EF5350}
    .fil1 {fill:#F06292}
    .fil0 {fill:#F48FB1}
    .fil10 {fill:#FFB300}
    .fil4 {fill:#37474F;fill-rule:nonzero}
    .fil6 {fill:#553A31;fill-rule:nonzero}
    .fil5 {fill:#5D4037;fill-rule:nonzero}
   ]]>
  </style>
   <clipPath id="id0">
    <path d="M1024 -0.0011811c565.539,0 1024,458.462 1024,1024 0,565.539 -458.462,1024 -1024,1024 -565.539,0 -1024,-458.462 -1024,-1024 0,-565.539 458.462,-1024 1024,-1024z"/>
   </clipPath>
 </defs>
 <g id="Layer_x0020_1">
  <metadata id="CorelCorpID_0Corel-Layer"/>
  <path class="fil0" d="M1024 -0.0011811c565.539,0 1024,458.462 1024,1024 0,565.539 -458.462,1024 -1024,1024 -565.539,0 -1024,-458.462 -1024,-1024 0,-565.539 458.462,-1024 1024,-1024z"/>
  <g style="clip-path:url(#id0)">
   <g id="_289348184">
    <g>
     <polygon id="_2909699521" class="fil1" points="1255.68,869.805 2391.57,2005.69 2391.75,2014.65 2391.74,2023.6 2391.52,2032.53 2391.09,2041.44 2390.47,2050.32 2389.65,2059.18 2388.63,2068 2387.42,2076.79 2386.01,2085.55 2384.41,2094.26 2382.61,2102.92 2380.62,2111.54 2378.45,2120.11 2376.08,2128.62 2373.53,2137.08 2370.78,2145.47 2367.86,2153.8 2364.75,2162.06 2361.45,2170.25 2357.98,2178.37 2354.32,2186.41 2350.49,2194.37 2346.47,2202.25 2342.28,2210.04 2337.92,2217.74 2333.38,2225.34 2328.67,2232.85 2323.78,2240.26 2318.73,2247.56 2313.5,2254.76 2308.11,2261.85 2302.55,2268.82 1166.67,1132.94 1172.23,1125.97 1177.62,1118.88 1182.85,1111.68 1187.9,1104.38 1192.79,1096.97 1197.5,1089.46 1202.04,1081.86 1206.4,1074.16 1210.59,1066.37 1214.61,1058.49 1218.44,1050.53 1222.1,1042.49 1225.57,1034.37 1228.86,1026.18 1231.98,1017.92 1234.9,1009.59 1237.64,1001.19 1240.2,992.739 1242.57,984.225 1244.74,975.659 1246.73,967.04 1248.53,958.374 1250.13,949.664 1251.54,940.912 1252.75,932.122 1253.77,923.297 1254.59,914.441 1255.21,905.557 1255.63,896.649 1255.85,887.717 1255.87,878.769 "/>
     <polygon id="_290969976" class="fil1" points="1139.6,602.979 2275.48,1738.86 2281.9,1746.07 2288.19,1753.39 2294.33,1760.82 2300.33,1768.35 2306.18,1776 2311.87,1783.74 2317.41,1791.58 2322.78,1799.53 2327.99,1807.57 2333.02,1815.71 2337.88,1823.94 2342.56,1832.26 2347.05,1840.68 2351.36,1849.18 2355.47,1857.78 2359.39,1866.45 2363.1,1875.21 2366.61,1884.06 2369.91,1892.98 2372.99,1901.98 2375.86,1911.06 2378.5,1920.22 2380.92,1929.44 2383.1,1938.74 2385.05,1948.11 2386.76,1957.55 2388.23,1967.05 2389.45,1976.62 2390.41,1986.25 2391.12,1995.94 2391.57,2005.69 1255.68,869.805 1255.24,860.055 1254.53,850.364 1253.56,840.734 1252.35,831.167 1250.88,821.664 1249.17,812.228 1247.22,802.86 1245.04,793.561 1242.62,784.333 1239.98,775.179 1237.11,766.1 1234.03,757.099 1230.73,748.175 1227.22,739.332 1223.5,730.57 1219.59,721.893 1215.48,713.301 1211.17,704.796 1206.68,696.381 1202,688.056 1197.14,679.824 1192.11,671.686 1186.9,663.644 1181.53,655.7 1175.99,647.856 1170.3,640.113 1164.45,632.473 1158.45,624.937 1152.31,617.509 1146.02,610.189 "/>
     <polygon id="_290971080" class="fil1" points="1232.49,1194.65 2368.37,2330.53 2368.38,2330.52 2368.39,2330.52 2368.41,2330.51 2368.42,2330.51 2368.43,2330.5 2368.44,2330.5 2368.46,2330.49 2368.47,2330.48 1232.59,1194.6 1232.58,1194.61 1232.56,1194.61 1232.55,1194.62 1232.54,1194.63 1232.53,1194.63 1232.51,1194.64 1232.5,1194.64 "/>
     <polygon id="_290970792" class="fil1" points="1240.23,1201.91 2376.11,2337.79 2377.71,2339.45 2379.11,2341.23 2380.31,2343.1 2381.31,2345.06 2382.12,2347.09 2382.72,2349.18 2383.12,2351.3 2383.33,2353.45 2383.33,2355.61 2383.13,2357.76 2382.72,2359.9 2382.12,2361.99 2381.31,2364.03 2380.3,2366 2379.08,2367.89 2377.66,2369.69 1241.78,1233.8 1243.2,1232.01 1244.42,1230.12 1245.43,1228.15 1246.24,1226.11 1246.84,1224.01 1247.25,1221.88 1247.44,1219.73 1247.44,1217.57 1247.24,1215.42 1246.84,1213.3 1246.24,1211.21 1245.43,1209.18 1244.43,1207.22 1243.23,1205.34 1241.83,1203.57 "/>
     <polygon id="_290970552" class="fil1" points="1241.78,1233.8 2377.66,2369.69 2377.59,2369.76 2377.52,2369.84 2377.45,2369.92 2377.39,2370 2377.32,2370.07 2377.25,2370.15 2377.17,2370.23 2377.1,2370.3 1241.22,1234.42 1241.29,1234.34 1241.36,1234.27 1241.43,1234.19 1241.5,1234.11 1241.57,1234.04 1241.64,1233.96 1241.71,1233.88 "/>
     <polygon id="_290970672" class="fil1" points="1241.22,1234.42 2377.1,2370.3 2375.41,2371.93 2373.59,2373.36 2371.66,2374.58 2369.65,2375.58 2367.57,2376.38 2365.43,2376.98 2363.25,2377.36 2361.05,2377.53 2358.85,2377.49 2356.65,2377.24 2354.48,2376.78 2352.35,2376.11 2350.28,2375.23 2348.29,2374.13 2346.39,2372.82 2344.59,2371.29 1208.71,1235.41 1210.5,1236.94 1212.41,1238.25 1214.4,1239.34 1216.47,1240.23 1218.6,1240.9 1220.77,1241.36 1222.96,1241.61 1225.17,1241.65 1227.37,1241.48 1229.55,1241.09 1231.69,1240.5 1233.77,1239.7 1235.78,1238.69 1237.71,1237.47 1239.52,1236.05 "/>
     <polygon id="_290970408" class="fil1" points="1208.71,1235.41 2344.59,2371.29 2336.93,2364.11 1201.05,1228.23 "/>
     <polygon id="_290970720" class="fil1" points="1201.05,1228.23 2336.93,2364.11 2270.84,2302.15 1134.96,1166.27 "/>
     <polygon id="_290970840" class="fil1" points="1134.96,1166.27 2270.84,2302.15 2263.94,2308.17 2256.93,2314.06 2249.83,2319.82 2242.64,2325.45 2235.35,2330.94 2227.96,2336.29 2220.49,2341.5 2212.93,2346.56 2205.28,2351.47 2197.54,2356.22 2189.72,2360.82 2181.82,2365.25 2173.83,2369.51 2165.77,2373.61 2157.62,2377.53 2149.4,2381.28 2141.1,2384.84 2132.73,2388.22 2124.28,2391.42 2115.77,2394.42 2107.18,2397.22 2098.53,2399.83 2089.81,2402.24 2081.02,2404.43 2072.17,2406.42 2063.26,2408.2 2054.28,2409.76 2045.25,2411.09 2036.16,2412.21 2027.02,2413.09 2017.82,2413.74 2008.56,2414.16 872.681,1278.28 881.935,1277.86 891.135,1277.21 900.282,1276.32 909.372,1275.21 918.403,1273.87 927.376,1272.32 936.289,1270.54 945.139,1268.55 953.925,1266.35 962.645,1263.95 971.3,1261.34 979.886,1258.54 988.402,1255.53 996.846,1252.34 1005.22,1248.96 1013.52,1245.4 1021.74,1241.65 1029.88,1237.73 1037.95,1233.63 1045.94,1229.37 1053.84,1224.93 1061.66,1220.34 1069.4,1215.59 1077.05,1210.68 1084.61,1205.62 1092.08,1200.41 1099.46,1195.06 1106.75,1189.57 1113.95,1183.94 1121.05,1178.18 1128.06,1172.29 "/>
     <polygon id="_290970360" class="fil1" points="872.681,1278.28 2008.56,2414.16 1998.75,2414.36 1988.95,2414.31 1979.18,2414.01 1969.43,2413.48 1959.72,2412.7 1950.04,2411.69 1940.4,2410.45 1930.81,2408.97 1921.26,2407.25 1911.77,2405.3 1902.33,2403.13 1892.96,2400.73 1883.65,2398.1 1874.41,2395.24 1865.24,2392.16 1856.16,2388.86 1847.15,2385.34 1838.24,2381.61 1829.41,2377.65 1820.68,2373.48 1812.05,2369.1 1803.53,2364.5 1795.11,2359.7 1786.81,2354.69 1778.63,2349.46 1770.56,2344.04 1762.62,2338.41 1754.81,2332.58 1747.14,2326.54 1739.61,2320.31 1732.22,2313.89 596.334,1178 603.726,1184.43 611.261,1190.66 618.934,1196.7 626.742,1202.53 634.68,1208.16 642.745,1213.58 650.93,1218.8 659.233,1223.82 667.649,1228.62 676.173,1233.22 684.802,1237.6 693.531,1241.77 702.356,1245.72 711.272,1249.46 720.276,1252.98 729.362,1256.28 738.527,1259.36 747.766,1262.21 757.075,1264.84 766.451,1267.25 775.887,1269.42 785.381,1271.37 794.926,1273.08 804.52,1274.56 814.159,1275.81 823.838,1276.82 833.553,1277.6 843.298,1278.13 853.072,1278.42 862.867,1278.47 "/>
    </g>
    <path id="_289347704" class="fil1" d="M1232.49 1194.65c0.0330709,-0.0153543 0.0661418,-0.0307087 0.0992127,-0.046063 -0.0330709,0.0153543 -0.0661418,0.0307087 -0.0992127,0.046063zm-99.4501 -598.767c70.6359,75.1111 119.286,169.614 122.646,273.924 3.08386,95.6847 -28.8307,189.357 -89.0115,263.138l65.8158 61.7056 7.74331 7.26024c9.04725,8.51221 9.66969,22.6252 1.54843,31.8957 -0.18189,0.206693 -0.367323,0.412205 -0.558662,0.615355 -8.70355,9.25158 -23.2606,9.6945 -32.511,0.990946l-7.66182 -7.18347 -66.0875 -61.9595c-73.1339,64.8473 -163.291,108.822 -262.281,112.012 -104.764,3.37559 -207.118,-35.2051 -283.591,-106.902 -76.8556,-72.0556 -121.493,-170.834 -124.885,-276.103 -3.37559,-104.763 35.2051,-207.117 106.902,-283.59 72.0567,-76.8544 170.835,-121.493 276.103,-124.884 97.0406,-3.12756 192.014,29.7449 266.266,91.5898l0.537402 -0.572835 16.8331 15.8539c0.657875,0.618898 0.370866,0.329528 1.1315,1.10315l0.682678 0.696851 0.214961 0.232677 0.164173 0.175984z"/>
   </g>
  </g>
  <path class="fil2" d="M1024 -0.0011811c565.539,0 1024,458.462 1024,1024 0,565.539 -458.462,1024 -1024,1024 -565.539,0 -1024,-458.462 -1024,-1024 0,-565.539 458.462,-1024 1024,-1024z"/>
  <ellipse class="fil3" cx="859.945" cy="882.541" rx="308.098" ry="308.098"/>
  <path class="fil4" d="M1154.28 1121.32c-9.2504,-8.70355 -23.8075,-8.25946 -32.511,0.990946 -8.70473,9.2504 -8.26064,23.8087 0.989765,32.5122l85.9548 80.5867c9.2504,8.70355 23.8075,8.26064 32.511,-0.990946 8.70355,-9.2504 8.26064,-23.8075 -0.989765,-32.511l-85.9548 -80.5879z"/>
  <path class="fil5" d="M1295.23 1205.05l256.805 200.646c1.12677,0.732284 2.20512,1.57559 3.21969,2.52638l-15.7689 16.8189 15.7606 -16.7504c30.4925,28.5874 34.3016,63.8658 22.7327,93.6024 -4.37126,11.2358 -10.9713,21.5634 -19.1551,30.2918 -8.18386,8.72835 -18.0496,15.9721 -28.9536,21.0449 -28.4717,13.2461 -63.2941,11.9327 -93.5268,-15.4701 -1.0063,-0.804331 -1.96063,-1.70197 -2.84646,-2.69764l17.2158 -15.3343 -17.2004 15.3095 -218.6 -245.411c-19.2295,-18.7748 -21.4819,-41.8099 -13.8874,-61.3335 2.88071,-7.40552 7.20945,-14.1874 12.5622,-19.8969 5.35158,-5.70827 11.8264,-10.4563 19.0028,-13.7953 19.1327,-8.90079 42.4985,-8.01969 62.6398,10.4492z"/>
  <path class="fil6" d="M1557.21 1533.86c-7.85552,7.98308 -17.1473,14.628 -27.3473,19.3736 -28.4717,13.2461 -63.2941,11.9327 -93.5268,-15.4701 -1.0063,-0.804331 -1.96063,-1.70197 -2.84646,-2.69764l17.2158 -15.3343 -17.2004 15.3095 -218.6 -245.411c-19.2295,-18.7748 -21.4819,-41.8099 -13.8874,-61.3335 2.88071,-7.40552 7.20945,-14.1874 12.5622,-19.8969 0.233858,-0.249213 0.470079,-0.497244 0.707481,-0.741733l342.923 326.202z"/>
  <path class="fil5" d="M1295.23 1205.05l256.805 200.646c1.12677,0.732284 2.20512,1.57559 3.21969,2.52638l-15.7689 16.8189 15.7606 -16.7504c30.4925,28.5874 34.3016,63.8658 22.7327,93.6024 -4.37126,11.2358 -10.9713,21.5634 -19.1551,30.2918 -0.510237,0.544489 -1.0252,1.08071 -1.54843,1.61339l-0.0578741 0.0578741 -342.923 -326.202 0.362599 -0.370866c5.13662,-5.21339 11.2287,-9.56339 17.9327,-12.6827 19.1327,-8.90079 42.4985,-8.01969 62.6398,10.4492z"/>
  <path class="fil7" d="M1113.47 578.391l0.537402 -0.572835 16.8331 15.8539c0.657875,0.618898 0.370866,0.329528 1.1315,1.10315l0.682678 0.696851 0.214961 0.232677 0.164173 0.175984c70.6359,75.1111 119.286,169.614 122.646,273.924 3.12756,97.0418 -29.7437,192.014 -91.5898,266.266l0.572835 0.536221 -15.8539 16.8343c-0.618898,0.657875 -0.330709,0.369685 -1.10315,1.1315l-0.696851 0.682678 -0.232677 0.214961 -0.175984 0.164173c-75.1111,70.6359 -169.615,119.284 -273.924,122.646 -104.764,3.37559 -207.118,-35.2051 -283.591,-106.902 -76.8556,-72.0556 -121.493,-170.834 -124.885,-276.103 -3.37559,-104.763 35.2051,-207.117 106.902,-283.59 72.0567,-76.8544 170.835,-121.493 276.103,-124.884 97.0406,-3.12756 192.014,29.7449 266.266,91.5898zm-29.4839 511.526c54.4607,-58.8201 83.6942,-137.087 81.1111,-217.23 -2.56536,-79.5957 -32.1331,-158.961 -94.3524,-211.031l-0.37441 -0.312992 -0.908268 -0.79252 -0.622441 -0.571654c-0.830316,-0.766536 -0.568111,-0.517323 -1.29803,-1.25669l-0.22441 -0.229134c-58.8201,-54.4607 -137.087,-83.6918 -217.23,-81.1099 -81.2268,2.61732 -157.305,37.0855 -212.893,96.3757 -55.2922,58.9748 -85.0158,137.843 -82.4115,218.634 2.61732,81.2257 37.0855,157.305 96.3745,212.892 58.976,55.2922 137.843,85.017 218.635,82.4127 79.5957,-2.56654 158.961,-32.1331 211.031,-94.3524l0.312992 -0.37441 0.79252 -0.90945 0.571654 -0.62126c0.766536,-0.830316 0.517323,-0.568111 1.25669,-1.29803l0.227953 -0.22441z"/>
  <path class="fil8" d="M859.945 542.028c188.06,0 340.513,152.453 340.513,340.513 0,188.06 -152.453,340.513 -340.513,340.513 -188.06,0 -340.513,-152.453 -340.513,-340.513 0,-188.06 152.453,-340.513 340.513,-340.513zm224.046 547.889c54.4607,-58.8201 83.6942,-137.087 81.1111,-217.23 -2.56536,-79.5957 -32.1331,-158.961 -94.3524,-211.031l-0.37441 -0.312992 -0.908268 -0.79252 -0.622441 -0.571654c-0.830316,-0.766536 -0.568111,-0.517323 -1.29803,-1.25669l-0.22441 -0.229134c-58.8201,-54.4607 -137.087,-83.6918 -217.23,-81.1099 -81.2268,2.61732 -157.305,37.0855 -212.893,96.3757 -55.2922,58.9748 -85.0158,137.843 -82.4115,218.634 2.61732,81.2257 37.0855,157.305 96.3745,212.892 58.976,55.2922 137.843,85.017 218.635,82.4127 79.5957,-2.56654 158.961,-32.1331 211.031,-94.3524l0.312992 -0.37441 0.79252 -0.90945 0.571654 -0.62126c0.766536,-0.830316 0.517323,-0.568111 1.25669,-1.29803l0.227953 -0.22441z"/>
  <path class="fil9" d="M1048.79 882.949c-7.46457,-3.91418 -14.0162,-9.30355 -18.5327,-16.7693 -7.87442,-13.0158 -9.04607,-33.587 -9.04607,-48.4217l0 -46.0843c0,-9.05552 -0.630709,-27.9898 -7.24371,-35.1154 -6.29174,-6.78189 -20.9693,-7.65827 -29.5028,-7.65827l-12.6425 0 0 -31.4445 14.5878 0c17.6799,0 41.6374,2.16851 54.5859,15.8256 13.2567,13.9831 14.8358,42.1323 14.8358,60.2729l0 46.1481c0,11.4721 1.27559,28.5662 9.37796,37.5803 5.49685,6.11575 14.3268,8.54646 22.2047,9.51615l4.95355 0.609449 0 30.6544 -4.95355 0.61063c-7.89449,0.972048 -16.6961,3.41103 -22.2118,9.52442 -8.09883,8.97402 -9.37087,26.0055 -9.37087,37.4422l0 46.4067c0,17.9835 -1.53662,46.3075 -14.7969,60.1063 -12.8705,13.3925 -37.1764,15.4736 -54.6248,15.4736l-14.5878 0 0 -31.4445 5.64331 0c1.56851,0 3.15945,0.101575 4.72323,0.207874 1.26142,0.0850394 2.56772,0.18189 3.8315,0.18189 8.29725,0 22.0512,-0.915355 28.1091,-7.55788 6.47481,-7.09961 7.0819,-26.1166 7.0819,-35.087l0 -45.8244c0,-14.8488 1.16339,-35.4567 9.04607,-48.4867 4.51654,-7.46457 11.0622,-12.8185 18.5327,-16.6665z"/>
  <path class="fil9" d="M671.102 882.949c7.47048,3.84803 14.0162,9.20198 18.5315,16.6665 7.88268,13.0299 9.04607,33.6378 9.04607,48.4867l0 45.8244c0,8.97048 0.607087,27.9874 7.0819,35.087 6.05906,6.64252 19.813,7.55788 28.1103,7.55788 1.26378,0 2.57008,-0.0968505 3.83032,-0.18189 1.56496,-0.106299 3.15591,-0.207874 4.72441,-0.207874l5.64331 0 0 31.4445 -14.5878 0c-17.4484,0 -41.7544,-2.0811 -54.6248,-15.4736 -13.2602,-13.7988 -14.7969,-42.1229 -14.7969,-60.1063l0 -46.4067c0,-11.4366 -1.27205,-28.4681 -9.37087,-37.4422 -5.51575,-6.11339 -14.3185,-8.55237 -22.2118,-9.52442l-4.95355 -0.61063 0 -30.6544 4.95355 -0.609449c7.87796,-0.969686 16.7079,-3.4004 22.2047,-9.51615 8.10237,-9.01418 9.37796,-26.1083 9.37796,-37.5803l0 -46.1481c0,-18.1406 1.57795,-46.2898 14.8358,-60.2729 12.9473,-13.6571 36.9048,-15.8256 54.5859,-15.8256l14.5878 0 0 31.4445 -12.6437 0c-8.53229,0 -23.2099,0.876379 -29.5016,7.65827 -6.613,7.1256 -7.24489,26.0599 -7.24489,35.1154l0 46.0843c0,14.8347 -1.17165,35.4059 -9.04607,48.4217 -4.51536,7.46575 -11.0669,12.8551 -18.5315,16.7693z"/>
  <polygon class="fil10" points="736.335,882.356 796.828,921.998 796.828,959.685 703.351,896.443 703.351,867.934 796.828,805.471 796.828,843.054 "/>
  <polygon class="fil11" points="958.824,882.356 898.41,843.051 898.41,805.471 991.887,867.934 991.887,896.443 898.41,959.685 898.41,922 "/>
  <polygon class="fil12" points="901.093,766.936 826.836,1006.88 794.144,998.146 868.4,758.201 "/>
 </g>
</svg>
