<?xml version="1.0" encoding="iso-8859-1"?>
<!-- Generator: Adobe Illustrator 22.0.1, SVG Export Plug-In . SVG Version: 6.00 Build 0)  -->
<svg version="1.1" xmlns="http://www.w3.org/2000/svg" xmlns:xlink="http://www.w3.org/1999/xlink" x="0px" y="0px"
	 viewBox="0 0 512 512" style="enable-background:new 0 0 512 512;" xml:space="preserve">
<g id="BULINE">
	<circle id="XMLID_1287_" style="fill:#24D3B5;" cx="256" cy="256" r="256"/>
</g>
<g id="Icons">
	<g>
		<path style="fill:#FCC0DB;" d="M57.621,291.935c-9.235-5.599-14.874-15.614-14.874-26.411V127.587
			c0-5.374,1.399-10.552,3.939-15.088l138.166,83.92l3.951,129.854l-3.951,37.596c-5.548,0-11.098-1.493-16.02-4.478L57.621,291.935
			z"/>
		<path style="fill:#FFFFFF;" d="M323.019,112.499c-2.557-4.567-6.274-8.487-10.892-11.3L200.916,33.505
			C195.982,30.501,190.417,29,184.853,29c-5.565,0-11.129,1.5-16.062,4.505L57.578,101.199c-4.622,2.813-8.335,6.729-10.892,11.3
			l138.166,83.92L323.019,112.499z"/>
		<path style="fill:#D8F4E9;" d="M312.128,101.199l-9.105-5.542l-118.17,71.775L66.684,95.656l-9.105,5.542
			c-4.622,2.813-8.335,6.729-10.892,11.3l138.166,83.92l138.166-83.92C320.462,107.932,316.746,104.012,312.128,101.199z"/>
		<path style="fill:#F9DEEB;" d="M312.085,291.935c9.235-5.599,14.874-15.614,14.874-26.411V127.587
			c0-5.374-1.399-10.552-3.939-15.088l-138.166,83.92v167.45c5.549,0,11.098-1.493,16.02-4.478L312.085,291.935z"/>
		<g>
			<path style="fill:#32314B;" d="M184.853,126c-13.711,0-24.452-7.44-24.452-16.938c0-9.499,10.741-16.939,24.452-16.939
				s24.452,7.44,24.452,16.939C209.305,118.56,198.564,126,184.853,126z"/>
		</g>
		<path style="fill:#27273D;" d="M148.439,319.994c-7.36,0-15.26-6.941-19.659-17.27c-2.408-5.649-3.418-11.563-2.846-16.651
			c0.667-5.93,3.377-10.193,7.632-12.006c1.356-0.577,2.81-0.869,4.324-0.869c7.358,0,15.258,6.941,19.658,17.27
			c2.408,5.649,3.418,11.563,2.846,16.651c-0.667,5.93-3.377,10.193-7.632,12.006C151.408,319.701,149.954,319.994,148.439,319.994z
			"/>
		<path style="fill:#27273D;" d="M81.313,291.555c-7.36,0-15.26-6.941-19.659-17.27c-2.408-5.649-3.418-11.563-2.846-16.651
			c0.667-5.93,3.377-10.193,7.632-12.006c1.356-0.577,2.81-0.869,4.324-0.869c7.358,0,15.258,6.941,19.658,17.27
			c2.408,5.649,3.418,11.563,2.846,16.651c-0.667,5.93-3.377,10.193-7.632,12.006C84.281,291.263,82.827,291.555,81.313,291.555z"/>
		<path style="fill:#27273D;" d="M81.313,211.705c-7.36,0-15.26-6.941-19.659-17.27c-2.408-5.649-3.418-11.563-2.846-16.651
			c0.667-5.93,3.377-10.193,7.632-12.006c1.356-0.577,2.81-0.869,4.324-0.869c7.358,0,15.258,6.941,19.658,17.27
			c2.408,5.649,3.418,11.563,2.846,16.651c-0.667,5.93-3.377,10.193-7.632,12.006C84.281,211.412,82.827,211.705,81.313,211.705z"/>
		<path style="fill:#27273D;" d="M156.384,242.398c-7.36,0-15.26-6.941-19.659-17.27c-2.408-5.649-3.418-11.563-2.846-16.651
			c0.667-5.93,3.377-10.193,7.632-12.006c1.356-0.577,2.81-0.869,4.324-0.869c7.358,0,15.258,6.941,19.658,17.27
			c2.408,5.649,3.418,11.563,2.846,16.651c-0.667,5.93-3.377,10.193-7.632,12.006C159.352,242.106,157.898,242.398,156.384,242.398z
			"/>
		<g>
			<path style="fill:#FCC0DB;" d="M469.225,386.266l-5.415-130.082c-0.225-5.406-1.855-10.551-4.618-15l-140.304,80.294
				l-34.549-17.757l-61.003,110.306l102.123,68.973c5.234-0.027,10.463-1.382,15.16-4.062l113.06-64.56
				c5.017-2.863,9.023-7.007,11.716-11.876C468.087,397.632,469.467,392.036,469.225,386.266z"/>
			<path style="fill:#F9DEEB;" d="M173.727,386.591c0.43,10.792,6.465,20.572,15.914,25.798l120.707,66.756
				c4.703,2.601,9.911,3.883,15.11,3.855l-6.571-161.522l-146.534-81.039c-2.686,4.856-4.064,10.434-3.834,16.186L173.727,386.591z"
				/>
			<path style="fill:#32314B;" d="M380.438,355.687c6.636-11.998,18.344-17.797,26.656-13.2c8.312,4.597,9.625,17.597,2.989,29.595
				s-18.344,17.796-26.656,13.199C375.116,380.685,373.803,367.686,380.438,355.687z"/>
			<path style="fill:#32314B;" d="M349.846,411.004c6.636-11.999,18.345-17.797,26.656-13.201
				c8.312,4.597,9.625,17.597,2.989,29.596c-6.636,11.998-18.344,17.796-26.656,13.199
				C344.524,436.002,343.211,423.003,349.846,411.004z"/>
			<path style="fill:#32314B;" d="M411.031,300.37c6.636-11.998,18.344-17.797,26.656-13.2c8.312,4.597,9.625,17.597,2.989,29.595
				s-18.344,17.797-26.656,13.2C405.708,325.368,404.395,312.369,411.031,300.37z"/>
			<path style="fill:#FFFFFF;" d="M318.888,321.478l140.304-80.294c-2.74-4.419-6.594-8.149-11.297-10.749l-120.707-66.756
				c-9.449-5.225-20.941-5.138-30.311,0.234l-112.852,64.675c-4.994,2.863-8.986,6.996-11.671,11.852l146.533,81.038
				L318.888,321.478z"/>
			<path style="fill:#D8F4E9;" d="M447.895,230.434l-10.462-5.786L318.888,292.49l-0.002-0.001L193.51,223.151l-9.485,5.436
				c-4.994,2.863-8.986,6.996-11.671,11.852l146.533,81.038l0.002,0.001l140.304-80.294
				C456.452,236.765,452.597,233.035,447.895,230.434z"/>
		</g>
		<g>
			<path style="fill:#32314B;" d="M374.758,247.118c-13.712,0-24.452-7.44-24.452-16.938c0-9.499,10.741-16.939,24.452-16.939
				c13.711,0,24.451,7.44,24.451,16.939C399.209,239.678,388.469,247.118,374.758,247.118z"/>
			<path style="fill:#32314B;" d="M248.333,247.118c-13.711,0-24.452-7.44-24.452-16.938c0-9.499,10.741-16.939,24.452-16.939
				c13.711,0,24.452,7.44,24.452,16.939C272.784,239.678,262.044,247.118,248.333,247.118z"/>
		</g>
		<g>
			<g>
				<path style="fill:#27273D;" d="M284.773,390.211c-6.009,0-12.459-5.667-16.05-14.1c-1.966-4.612-2.791-9.44-2.324-13.595
					c0.545-4.841,2.758-8.322,6.231-9.802c1.107-0.471,2.294-0.71,3.53-0.71c6.008,0,12.457,5.667,16.05,14.1
					c1.966,4.612,2.791,9.44,2.324,13.595c-0.545,4.841-2.758,8.322-6.231,9.802C287.197,389.972,286.009,390.211,284.773,390.211z"
					/>
				<path style="fill:#27273D;" d="M209.287,366.992c-6.009,0-12.459-5.667-16.05-14.1c-1.966-4.612-2.791-9.44-2.324-13.594
					c0.545-4.841,2.758-8.322,6.231-9.802c1.107-0.471,2.294-0.71,3.53-0.71c6.008,0,12.457,5.667,16.05,14.1
					c1.966,4.612,2.791,9.44,2.324,13.594c-0.545,4.841-2.758,8.322-6.231,9.802C211.711,366.753,210.524,366.992,209.287,366.992z"
					/>
			</g>
			<g>
				<path style="fill:#27273D;" d="M284.773,435.574c-6.009,0-12.459-5.667-16.05-14.1c-1.966-4.612-2.791-9.44-2.324-13.595
					c0.545-4.841,2.758-8.322,6.231-9.802c1.107-0.471,2.294-0.71,3.53-0.71c6.008,0,12.457,5.667,16.05,14.1
					c1.966,4.612,2.791,9.44,2.324,13.595c-0.545,4.841-2.758,8.322-6.231,9.802C287.197,435.335,286.009,435.574,284.773,435.574z"
					/>
				<path style="fill:#27273D;" d="M209.287,412.355c-6.009,0-12.459-5.667-16.05-14.1c-1.966-4.612-2.791-9.44-2.324-13.595
					c0.545-4.841,2.758-8.322,6.231-9.802c1.107-0.471,2.294-0.71,3.53-0.71c6.008,0,12.457,5.667,16.05,14.1
					c1.966,4.612,2.791,9.44,2.324,13.595c-0.545,4.841-2.758,8.322-6.231,9.802C211.711,412.116,210.524,412.355,209.287,412.355z"
					/>
			</g>
			<g>
				<path style="fill:#27273D;" d="M209.287,320.709c-6.009,0-12.459-5.667-16.05-14.1c-1.966-4.612-2.791-9.44-2.324-13.594
					c0.545-4.841,2.758-8.322,6.231-9.802c1.107-0.471,2.294-0.71,3.53-0.71c6.008,0,12.457,5.667,16.05,14.1
					c1.966,4.612,2.791,9.44,2.324,13.594c-0.545,4.841-2.758,8.322-6.231,9.802C211.711,320.47,210.524,320.709,209.287,320.709z"
					/>
				<path style="fill:#27273D;" d="M291.259,345.768c-6.009,0-12.459-5.667-16.05-14.1c-1.966-4.612-2.791-9.44-2.324-13.594
					c0.545-4.841,2.758-8.322,6.231-9.802c1.107-0.471,2.294-0.71,3.53-0.71c6.008,0,12.457,5.667,16.05,14.1
					c1.966,4.612,2.791,9.44,2.324,13.594c-0.545,4.841-2.758,8.322-6.231,9.802C293.683,345.529,292.496,345.768,291.259,345.768z"
					/>
			</g>
		</g>
	</g>
</g>
</svg>
